<?xml version="1.0" encoding="UTF-8"?>
<svg width="10px" height="10px" viewBox="0 0 10 10" version="1.1" xmlns="http://www.w3.org/2000/svg" xmlns:xlink="http://www.w3.org/1999/xlink">
    <!-- Generator: Sketch 49 (51002) - http://www.bohemiancoding.com/sketch -->
    <title>Shape</title>
    <desc>Created with Sketch.</desc>
    <defs></defs>
    <g id="Page-1" stroke="none" stroke-width="1" fill="none" fill-rule="evenodd">
        <g id="show" transform="translate(-68.000000, -265.000000)" fill="#000000" fill-rule="nonzero">
            <g id="main" transform="translate(3.000000, 93.000000)">
                <g id="link" transform="translate(17.000000, 171.000000)">
                    <g transform="translate(48.000000, 1.000000)" id="Shape">
                        <path d="M6.37915195,3.62092066 C7.54608583,4.78906291 7.5300702,6.66189129 6.3861832,7.81212341 C6.38403476,7.81446716 6.3814957,7.81700622 6.37915195,7.81934996 L5.06665163,9.1318474 C3.90903416,10.2894623 2.02565479,10.2893061 0.868213103,9.1318474 C-0.289404368,7.97442778 -0.289404368,6.09083771 0.868213103,4.9334181 L1.59293984,4.20869295 C1.78512739,4.01650583 2.11610403,4.14423995 2.12602591,4.41584098 C2.13868216,4.76197312 2.20075249,5.10972635 2.31528377,5.445546 C2.35407284,5.55925672 2.32635799,5.68503772 2.24139703,5.7699985 L1.9857915,6.02560347 C1.43840855,6.57298521 1.42124058,7.46427253 1.9632329,8.01700583 C2.51057678,8.57518833 3.41022544,8.57850864 3.96176855,8.02696674 L5.27426887,6.71466462 C5.82487447,6.16406023 5.82256978,5.27410103 5.27426887,4.72580132 C5.20198369,4.65365302 5.12917117,4.59759844 5.07229616,4.55843836 C4.99071018,4.50241341 4.94040235,4.4111252 4.93661253,4.31222791 C4.92887816,4.10584159 5.00200317,3.89316622 5.16508915,3.73008061 L5.57630019,3.31885094 C5.68413225,3.21101912 5.85329244,3.19777696 5.97833154,3.28504241 C6.12152856,3.38503236 6.2556523,3.49742495 6.37915195,3.62092066 Z M9.13178934,0.868152602 C7.97434765,-0.289306075 6.09096828,-0.289462324 4.93335081,0.868152602 L3.62085049,2.18065004 C3.61850674,2.18299378 3.61596768,2.18553284 3.61381924,2.18787659 C2.46995177,3.33810871 2.45391661,5.21093709 3.62085049,6.37907934 C3.74434285,6.50256947 3.87846019,6.61495564 4.02165137,6.71493806 C4.14669047,6.80220351 4.31587019,6.78894182 4.42368272,6.68112953 L4.83489376,6.26989986 C4.99797974,6.10681424 5.07110475,5.89413888 5.06337038,5.68775256 C5.05958056,5.58885527 5.00927273,5.49756706 4.92768675,5.44154211 C4.87081174,5.40238203 4.79799922,5.34632745 4.72571404,5.27417915 C4.17741313,4.72587944 4.17510844,3.83592024 4.72571404,3.28531585 L6.03821436,1.97301373 C6.58975747,1.42147183 7.48938659,1.42479214 8.03675001,1.98297464 C8.57874233,2.53570794 8.56159389,3.42699526 8.01419141,3.974377 L7.75858588,4.22998197 C7.67362492,4.31494274 7.64591007,4.44072375 7.68469914,4.55443446 C7.79923042,4.89025412 7.86130075,5.23800735 7.873957,5.58413948 C7.88389841,5.85574052 8.21485552,5.98347464 8.40704307,5.79128752 L9.13176981,5.06656237 C10.2894068,3.90916229 10.2894068,2.02557222 9.13178934,0.868152602 Z"></path>
                    </g>
                </g>
            </g>
        </g>
    </g>
</svg>