<svg id="logo" data-name="logo" width="135" xmlns="http://www.w3.org/2000/svg" viewBox="0 0 105.11 24.417"><defs><style>.cls-1{fill:#fff;stroke:#000;stroke-miterlimit:10;stroke-width:2px;}</style></defs><title>trend.js</title><path d="M288.373,334.847h-5.588v15.21h-2.324v-15.21h-5.6V332.9h13.512Z" transform="translate(-255 -330)"/><path d="M292.745,340.356a5.47,5.47,0,0,1,1.421-1.946,3.113,3.113,0,0,1,2.059-.7,3.259,3.259,0,0,1,.74.084,2.019,2.019,0,0,1,.633.264l-.157,1.593a.344.344,0,0,1-.361.3,2.493,2.493,0,0,1-.494-.072,3.481,3.481,0,0,0-.734-.071,2.94,2.94,0,0,0-1.03.167,2.4,2.4,0,0,0-.807.5,3.521,3.521,0,0,0-.639.815,6.956,6.956,0,0,0-.511,1.107v7.665h-2.156V337.925h1.229a.678.678,0,0,1,.481.132.806.806,0,0,1,.181.455Z" transform="translate(-255 -330)"/><path d="M309.665,348.356a4.071,4.071,0,0,1-.952.833,5.986,5.986,0,0,1-1.186.581,7.651,7.651,0,0,1-1.307.341,8,8,0,0,1-1.337.114,6.246,6.246,0,0,1-2.33-.425,5.127,5.127,0,0,1-1.842-1.246,5.716,5.716,0,0,1-1.211-2.03,8.209,8.209,0,0,1-.433-2.778,7.025,7.025,0,0,1,.391-2.371,5.579,5.579,0,0,1,1.126-1.911,5.182,5.182,0,0,1,1.794-1.269,5.913,5.913,0,0,1,2.385-.462,5.507,5.507,0,0,1,2.029.366,4.593,4.593,0,0,1,1.614,1.054,4.833,4.833,0,0,1,1.066,1.7,6.436,6.436,0,0,1,.385,2.305,1.391,1.391,0,0,1-.108.671.454.454,0,0,1-.41.167h-8.152a7.042,7.042,0,0,0,.318,2,4.029,4.029,0,0,0,.789,1.42,3.189,3.189,0,0,0,1.205.85,4.144,4.144,0,0,0,1.565.281,4.611,4.611,0,0,0,1.391-.186,6.54,6.54,0,0,0,1-.4,7.489,7.489,0,0,0,.705-.4.942.942,0,0,1,.488-.185.471.471,0,0,1,.409.2Zm-1.735-5.688a4.166,4.166,0,0,0-.211-1.359,3.03,3.03,0,0,0-.614-1.066,2.739,2.739,0,0,0-.981-.695,3.725,3.725,0,0,0-3.751.647,4.162,4.162,0,0,0-1.114,2.473Z" transform="translate(-255 -330)"/><path d="M314.794,339.686a7.311,7.311,0,0,1,.843-.8,5.558,5.558,0,0,1,.946-.616,4.8,4.8,0,0,1,1.06-.4,5.093,5.093,0,0,1,1.21-.138,4.419,4.419,0,0,1,1.764.33,3.433,3.433,0,0,1,1.277.934,4.123,4.123,0,0,1,.776,1.455,6.292,6.292,0,0,1,.265,1.881v7.724h-2.156v-7.724a3.251,3.251,0,0,0-.632-2.138,2.354,2.354,0,0,0-1.92-.761,3.624,3.624,0,0,0-1.777.455,5.861,5.861,0,0,0-1.523,1.234v8.934h-2.156V337.925h1.289a.529.529,0,0,1,.566.443Z" transform="translate(-255 -330)"/><path d="M336.591,332.416v17.641h-1.276a.545.545,0,0,1-.578-.443l-.193-1.473a6.631,6.631,0,0,1-1.782,1.509,4.559,4.559,0,0,1-2.312.575,4.43,4.43,0,0,1-1.9-.4,3.944,3.944,0,0,1-1.457-1.18,5.576,5.576,0,0,1-.927-1.94,9.93,9.93,0,0,1-.326-2.671,8.327,8.327,0,0,1,.362-2.5,6.139,6.139,0,0,1,1.035-2.006,4.8,4.8,0,0,1,1.656-1.335,4.912,4.912,0,0,1,2.21-.486,4.468,4.468,0,0,1,1.921.378,4.652,4.652,0,0,1,1.427,1.048v-6.719Zm-2.143,8.4a3.456,3.456,0,0,0-1.3-1.12,3.731,3.731,0,0,0-1.565-.317,3.082,3.082,0,0,0-2.614,1.209,5.628,5.628,0,0,0-.915,3.449,8.747,8.747,0,0,0,.2,2.03,3.9,3.9,0,0,0,.6,1.389,2.363,2.363,0,0,0,.975.8,3.257,3.257,0,0,0,1.313.251,3.488,3.488,0,0,0,1.849-.479,5.291,5.291,0,0,0,1.451-1.353Z" transform="translate(-255 -330)"/><path d="M339.916,348.74a1.521,1.521,0,0,1,.427-1.066,1.454,1.454,0,0,1,.475-.323,1.513,1.513,0,0,1,1.181,0,1.524,1.524,0,0,1,.481.323,1.54,1.54,0,0,1,.326.479,1.51,1.51,0,0,1,0,1.18,1.573,1.573,0,0,1-.326.473,1.476,1.476,0,0,1-.481.317,1.586,1.586,0,0,1-1.181,0,1.409,1.409,0,0,1-.475-.317,1.518,1.518,0,0,1-.313-.473A1.493,1.493,0,0,1,339.916,348.74Z" transform="translate(-255 -330)"/><path d="M348.513,337.925v13.031a4.624,4.624,0,0,1-.192,1.358,2.889,2.889,0,0,1-.614,1.1,2.933,2.933,0,0,1-1.079.736,4.119,4.119,0,0,1-1.571.27,3.906,3.906,0,0,1-.71-.061,3.946,3.946,0,0,1-.651-.179l.085-1.15a.32.32,0,0,1,.078-.161.248.248,0,0,1,.15-.066,1.569,1.569,0,0,1,.247-.006c.1,0,.227.006.38.006a1.737,1.737,0,0,0,1.336-.437,2.058,2.058,0,0,0,.4-1.407V337.925Zm.446-3.808a1.358,1.358,0,0,1-.126.581,1.692,1.692,0,0,1-.338.479,1.584,1.584,0,0,1-.488.329,1.464,1.464,0,0,1-.59.119,1.425,1.425,0,0,1-.584-.119,1.543,1.543,0,0,1-.476-.329,1.646,1.646,0,0,1-.324-.479,1.4,1.4,0,0,1-.121-.581,1.477,1.477,0,0,1,.121-.593,1.59,1.59,0,0,1,.324-.491,1.509,1.509,0,0,1,.476-.329,1.426,1.426,0,0,1,.584-.12,1.465,1.465,0,0,1,.59.12,1.55,1.55,0,0,1,.488.329,1.628,1.628,0,0,1,.338.491A1.432,1.432,0,0,1,348.959,334.117Z" transform="translate(-255 -330)"/><path d="M359.424,339.925a.475.475,0,0,1-.446.263.836.836,0,0,1-.409-.131q-.23-.132-.56-.293a5.287,5.287,0,0,0-.789-.3,3.814,3.814,0,0,0-1.084-.138,3.238,3.238,0,0,0-.975.138,2.37,2.37,0,0,0-.741.377,1.685,1.685,0,0,0-.47.557,1.494,1.494,0,0,0-.162.689,1.14,1.14,0,0,0,.271.778,2.326,2.326,0,0,0,.716.539,6.239,6.239,0,0,0,1.012.4q.565.173,1.162.371t1.162.437a4.226,4.226,0,0,1,1.012.6,2.742,2.742,0,0,1,.716.88,2.676,2.676,0,0,1,.271,1.252,3.946,3.946,0,0,1-.3,1.551,3.388,3.388,0,0,1-.891,1.233,4.3,4.3,0,0,1-1.445.82,5.955,5.955,0,0,1-1.975.3,6.177,6.177,0,0,1-2.312-.414,5.858,5.858,0,0,1-1.759-1.059l.506-.815a.741.741,0,0,1,.229-.239.619.619,0,0,1,.337-.084.81.81,0,0,1,.458.168q.24.166.584.371a4.465,4.465,0,0,0,.837.371,3.852,3.852,0,0,0,1.228.168,3.364,3.364,0,0,0,1.1-.162,2.307,2.307,0,0,0,.783-.437,1.74,1.74,0,0,0,.464-.635,1.967,1.967,0,0,0,.15-.766,1.266,1.266,0,0,0-.271-.833,2.293,2.293,0,0,0-.717-.563,5.934,5.934,0,0,0-1.017-.407q-.573-.173-1.168-.365t-1.168-.437a4.1,4.1,0,0,1-1.018-.617,2.8,2.8,0,0,1-.717-.916,2.959,2.959,0,0,1-.271-1.324,3.21,3.21,0,0,1,.29-1.335,3.267,3.267,0,0,1,.843-1.126,4.149,4.149,0,0,1,1.361-.772,5.479,5.479,0,0,1,1.842-.288,5.85,5.85,0,0,1,2.162.378,5.116,5.116,0,0,1,1.655,1.036Z" transform="translate(-255 -330)"/><line class="cls-1" x1="13" y1="12" x2="13" y2="20"/><line class="cls-1" x1="1" x2="1" y2="20"/><polyline class="cls-1" points="7 8 7 14 7 20"/></svg>